<?xml version="1.0" encoding="UTF-8" standalone="no"?>
<!DOCTYPE svg PUBLIC "-//W3C//DTD SVG 1.1//EN" "http://www.w3.org/Graphics/SVG/1.1/DTD/svg11.dtd">
<svg xmlns="http://www.w3.org/2000/svg" version="1.1" viewBox="0.00 0.00 172.00 273.00">
<path fill="#ffffff" d="
  M 0.00 41.38
  L 0.00 40.72
  Q 2.36 33.97 8.94 37.51
  A 2.81 2.80 -65.4 0 1 10.23 40.99
  L 9.38 43.20
  A 2.73 2.72 -53.9 0 0 9.79 45.86
  C 14.12 51.35 26.69 63.04 34.33 57.73
  C 42.24 52.22 38.45 35.10 35.68 27.48
  A 1.66 1.65 77.8 0 0 34.01 26.39
  C 27.32 26.84 23.89 17.99 31.31 15.50
  Q 35.81 13.99 39.72 17.53
  C 42.65 20.19 40.40 22.98 38.49 24.95
  A 1.43 1.42 55.1 0 0 38.21 26.52
  C 43.43 38.21 62.57 65.34 75.29 42.52
  Q 82.30 29.96 83.32 15.32
  A 0.69 0.69 0.0 0 0 82.83 14.61
  C 75.28 12.26 74.95 2.78 83.29 1.42
  Q 89.91 0.35 92.79 6.75
  C 93.54 8.43 93.96 9.26 92.44 10.72
  C 90.47 12.62 86.86 14.83 87.29 17.88
  C 88.50 26.48 95.10 56.75 109.76 50.61
  C 119.20 46.66 127.32 36.74 132.29 28.03
  A 2.02 2.02 0.0 0 0 132.05 25.70
  C 125.00 17.73 134.86 11.83 141.11 16.63
  C 145.19 19.78 143.93 24.49 139.15 25.90
  C 137.26 26.45 134.66 26.30 134.03 28.69
  C 132.04 36.30 129.43 44.35 132.36 51.92
  C 138.27 67.16 155.83 52.14 160.98 45.28
  A 0.86 0.86 0.0 0 0 161.06 44.39
  C 158.36 38.92 163.44 33.47 168.35 37.55
  C 170.92 39.69 170.75 43.30 167.69 44.89
  C 165.87 45.83 163.38 45.16 161.77 46.86
  Q 148.77 60.52 141.20 77.61
  A 2.37 2.35 -77.7 0 1 139.03 79.02
  L 30.99 78.83
  A 2.19 2.18 77.9 0 1 29.00 77.54
  Q 21.52 60.78 8.85 47.35
  C 5.89 44.21 1.63 46.85 0.00 41.38
  Z"
/>
<path fill="#ffffff" d="
  M 113.53 132.92
  L 113.52 240.98
  A 4.26 4.24 -26.2 0 1 112.63 243.58
  L 92.65 269.69
  Q 92.16 270.33 91.38 270.54
  Q 90.13 270.87 90.13 269.00
  Q 90.26 179.56 90.28 90.28
  A 0.74 0.74 0.0 0 1 90.95 89.54
  C 95.25 89.15 103.64 88.31 106.95 91.80
  Q 115.64 100.95 124.14 109.85
  A 1.00 1.00 0.0 0 0 125.57 109.86
  L 145.34 90.00
  Q 145.85 89.49 146.57 89.49
  L 158.70 89.45
  A 0.93 0.93 0.0 0 1 159.63 90.38
  Q 159.64 135.58 159.63 181.00
  Q 159.63 183.11 158.10 185.07
  Q 148.07 197.93 138.05 210.82
  Q 137.75 211.19 137.56 211.37
  A 0.64 0.64 0.0 0 1 136.49 210.89
  L 136.48 133.18
  A 0.77 0.77 0.0 0 0 135.14 132.66
  L 125.66 142.89
  A 0.87 0.87 0.0 0 1 124.39 142.89
  L 114.60 132.50
  A 0.62 0.62 0.0 0 0 113.53 132.92
  Z"
/>
<path fill="#ffffff" d="
  M 34.79 171.94
  A 0.75 0.75 0.0 0 0 33.51 172.47
  L 33.53 210.71
  Q 33.53 212.06 32.43 211.28
  Q 31.30 210.48 29.99 208.74
  Q 20.28 195.84 10.71 183.11
  A 2.31 2.28 -63.8 0 1 10.25 181.73
  L 10.25 90.98
  A 1.52 1.52 0.0 0 1 11.77 89.46
  L 32.54 89.50
  A 1.04 1.00 -0.0 0 1 33.58 90.50
  L 33.59 136.16
  A 0.76 0.76 0.0 0 0 34.88 136.70
  Q 45.11 126.56 55.19 116.49
  C 56.29 115.39 56.55 113.85 56.53 112.50
  Q 56.30 101.32 56.66 90.16
  Q 56.68 89.51 57.33 89.51
  L 79.23 89.52
  Q 79.93 89.52 79.92 90.22
  L 79.71 123.74
  A 2.42 2.41 67.9 0 1 78.98 125.47
  L 50.35 153.75
  A 0.90 0.90 0.0 0 0 50.35 155.03
  L 78.89 183.00
  A 2.97 2.95 -68.2 0 1 79.79 185.13
  L 79.81 270.50
  A 0.80 0.76 27.4 0 1 78.39 270.91
  L 57.27 243.57
  A 3.98 3.97 -63.8 0 1 56.45 241.15
  L 56.50 194.64
  A 2.22 2.22 0.0 0 0 55.85 193.07
  L 34.79 171.94
  Z"
/>
</svg>
