<?xml version="1.0" encoding="UTF-8" standalone="no"?>
<!DOCTYPE svg PUBLIC "-//W3C//DTD SVG 1.1//EN" "http://www.w3.org/Graphics/SVG/1.1/DTD/svg11.dtd">
<svg xmlns="http://www.w3.org/2000/svg" version="1.1" viewBox="0.00 0.00 333.00 691.00">
<g stroke-width="2.60" fill="none" stroke-linecap="butt">
<path stroke="#0f0f0f" vector-effect="non-scaling-stroke" d="
  M 119.78 0.53
  Q 140.54 1.86 161.33 1.57
  Q 161.68 1.57 164.15 1.78
  Q 165.23 1.87 167.00 1.88
  Q 225.45 2.28 254.38 1.87
  Q 256.13 1.85 259.00 0.76"
/>
<path stroke="#252526" vector-effect="non-scaling-stroke" d="
  M 316.40 9.68
  Q 310.64 7.77 305.51 8.88
  Q 303.66 9.29 303.90 10.85"
/>
<path stroke="#0f0f0f" vector-effect="non-scaling-stroke" d="
  M 303.90 10.85
  L 291.28 9.97"
/>
<path stroke="#525352" vector-effect="non-scaling-stroke" d="
  M 291.28 9.97
  Q 291.68 8.23 290.00 8.24
  Q 260.50 8.28 231.00 8.22
  C 224.42 8.21 217.41 8.82 211.33 8.77
  Q 112.84 8.02 40.75 8.26
  Q 37.06 8.27 36.05 10.05"
/>
<path stroke="#0f0f0f" vector-effect="non-scaling-stroke" d="
  M 36.05 10.05
  L 30.80 10.59"
/>
<path stroke="#252526" vector-effect="non-scaling-stroke" d="
  M 30.80 10.59
  Q 29.29 8.46 30.32 7.76
  A 1.06 0.91 17.6 0 0 29.30 6.11
  Q 21.30 7.90 15.76 11.99
  Q 10.82 15.64 8.30 16.75"
/>
<path stroke="#161617" vector-effect="non-scaling-stroke" d="
  M 30.80 10.59
  L 24.95 12.66"
/>
<path stroke="#595a59" vector-effect="non-scaling-stroke" d="
  M 24.95 12.66
  Q 6.31 20.85 6.30 41.50
  Q 6.18 342.76 6.30 643.92"
/>
<path stroke="#252526" vector-effect="non-scaling-stroke" d="
  M 6.30 643.92
  Q 3.90 643.18 1.61 646.12
  Q 1.22 646.62 1.66 647.07
  L 2.90 648.35
  A 0.58 0.57 41.8 0 1 2.95 649.10
  Q 2.05 650.27 0.00 649.65"
/>
<path stroke="#434443" vector-effect="non-scaling-stroke" d="
  M 291.28 9.97
  L 36.05 10.05"
/>
<path stroke="#252526" vector-effect="non-scaling-stroke" d="
  M 324.27 672.06
  Q 321.34 673.47 319.16 672.99
  Q 318.52 672.84 318.89 672.30
  C 320.53 669.85 323.36 666.21 322.09 663.19"
/>
<path stroke="#595a59" vector-effect="non-scaling-stroke" d="
  M 322.09 663.19
  Q 325.68 656.29 325.67 649.50
  Q 325.45 453.11 325.49 256.72"
/>
<path stroke="#161617" vector-effect="non-scaling-stroke" d="
  M 325.49 256.72
  Q 327.67 255.65 327.63 253.87
  Q 327.11 227.06 326.79 200.25
  Q 326.71 193.72 327.83 167.75
  Q 328.00 163.74 326.51 158.84
  Q 326.28 158.07 326.04 158.84
  L 325.91 159.30"
/>
<path stroke="#595a59" vector-effect="non-scaling-stroke" d="
  M 325.91 159.30
  C 325.72 158.02 326.01 156.65 326.00 155.58
  Q 325.20 103.45 325.48 51.34
  C 325.57 34.16 323.93 22.74 309.95 13.12
  Q 307.71 11.58 305.11 11.19"
/>
<path stroke="#161617" vector-effect="non-scaling-stroke" d="
  M 305.11 11.19
  Q 304.75 11.28 303.90 10.85"
/>
<path stroke="#434443" vector-effect="non-scaling-stroke" d="
  M 305.11 11.19
  C 307.86 14.24 311.14 17.33 313.28 20.27
  Q 320.03 29.54 320.06 40.50
  Q 320.49 229.12 319.97 641.79"
/>
<path stroke="#161617" vector-effect="non-scaling-stroke" d="
  M 319.97 641.79
  Q 320.03 645.15 319.97 648.51
  C 319.86 654.45 317.22 660.84 315.41 666.54"
/>
<path stroke="#434443" vector-effect="non-scaling-stroke" d="
  M 315.41 666.54
  Q 311.49 672.73 304.26 678.83"
/>
<path stroke="#0f0f0f" vector-effect="non-scaling-stroke" d="
  M 304.26 678.83
  L 298.88 679.25"
/>
<path stroke="#161617" vector-effect="non-scaling-stroke" d="
  M 298.88 679.25
  Q 296.67 678.85 292.89 678.92
  C 212.75 680.30 121.58 679.67 35.78 678.90"
/>
<path stroke="#0f0f0f" vector-effect="non-scaling-stroke" d="
  M 35.78 678.90
  Q 30.68 678.56 25.59 676.46"
/>
<path stroke="#434443" vector-effect="non-scaling-stroke" d="
  M 25.59 676.46
  C 12.12 664.77 12.03 650.81 12.03 634.25
  Q 12.02 346.13 12.04 58.00
  Q 12.04 41.17 12.51 38.03
  Q 14.60 23.90 24.95 12.66"
/>
<path stroke="#0f0f0f" vector-effect="non-scaling-stroke" d="
  M 195.10 20.86
  L 196.62 27.16
  A 2.75 2.75 0.0 0 0 199.94 29.18
  L 201.40 28.83
  A 7.13 5.90 -13.6 0 0 206.94 21.42
  L 206.90 21.24
  A 7.13 5.90 -13.6 0 0 198.58 17.19
  L 197.12 17.54
  A 2.75 2.75 0.0 0 0 195.10 20.86"
/>
<path stroke="#434443" vector-effect="non-scaling-stroke" d="
  M 325.91 159.30
  L 325.49 256.72"
/>
<path stroke="#525352" vector-effect="non-scaling-stroke" d="
  M 322.09 663.19
  Q 316.02 676.52 304.26 678.83"
/>
<path stroke="#595a59" vector-effect="non-scaling-stroke" d="
  M 315.41 666.54
  Q 320.71 661.48 320.45 655.75
  Q 320.14 648.78 319.97 641.79"
/>
<path stroke="#525352" vector-effect="non-scaling-stroke" d="
  M 25.59 676.46
  Q 25.28 678.80 21.76 676.18
  Q 6.04 664.47 6.30 643.92"
/>
<path stroke="#252526" vector-effect="non-scaling-stroke" d="
  M 35.78 678.90
  L 33.61 678.93
  A 0.81 0.80 58.1 0 0 33.26 680.45
  Q 38.00 682.90 43.00 682.87
  Q 133.50 682.22 224.00 682.00
  C 246.05 681.95 267.94 683.83 290.00 683.33
  Q 295.65 683.20 298.88 679.25"
/>
</g>
<path fill="#1e1e1e" d="
  M 119.78 0.53
  Q 140.54 1.86 161.33 1.57
  Q 161.68 1.57 164.15 1.78
  Q 165.23 1.87 167.00 1.88
  Q 225.45 2.28 254.38 1.87
  Q 256.13 1.85 259.00 0.76
  Q 282.21 0.39 291.25 0.71
  Q 304.97 1.19 316.40 9.68
  Q 310.64 7.77 305.51 8.88
  Q 303.66 9.29 303.90 10.85
  L 291.28 9.97
  Q 291.68 8.23 290.00 8.24
  Q 260.50 8.28 231.00 8.22
  C 224.42 8.21 217.41 8.82 211.33 8.77
  Q 112.84 8.02 40.75 8.26
  Q 37.06 8.27 36.05 10.05
  L 30.80 10.59
  Q 29.29 8.46 30.32 7.76
  A 1.06 0.91 17.6 0 0 29.30 6.11
  Q 21.30 7.90 15.76 11.99
  Q 10.82 15.64 8.30 16.75
  Q 22.15 0.58 43.00 0.54
  Q 81.40 0.46 119.78 0.53
  Z"
/>
<path fill="#000000" d="
  M 119.78 0.53
  L 259.00 0.76
  Q 256.13 1.85 254.38 1.87
  Q 225.45 2.28 167.00 1.88
  Q 165.23 1.87 164.15 1.78
  Q 161.68 1.57 161.33 1.57
  Q 140.54 1.86 119.78 0.53
  Z"
/>
<path fill="#2c2c2d" d="
  M 30.80 10.59
  L 24.95 12.66
  Q 6.31 20.85 6.30 41.50
  Q 6.18 342.76 6.30 643.92
  Q 3.90 643.18 1.61 646.12
  Q 1.22 646.62 1.66 647.07
  L 2.90 648.35
  A 0.58 0.57 41.8 0 1 2.95 649.10
  Q 2.05 650.27 0.00 649.65
  L 0.00 37.46
  Q 1.73 26.37 8.30 16.75
  Q 10.82 15.64 15.76 11.99
  Q 21.30 7.90 29.30 6.11
  A 1.06 0.91 17.6 0 1 30.32 7.76
  Q 29.29 8.46 30.80 10.59
  Z"
/>
<path fill="#868785" d="
  M 291.28 9.97
  L 36.05 10.05
  Q 37.06 8.27 40.75 8.26
  Q 112.84 8.02 211.33 8.77
  C 217.41 8.82 224.42 8.21 231.00 8.22
  Q 260.50 8.28 290.00 8.24
  Q 291.68 8.23 291.28 9.97
  Z"
/>
<path fill="#2c2c2d" d="
  M 316.40 9.68
  C 329.01 19.48 331.97 33.01 332.04 48.25
  Q 332.28 100.88 332.26 153.52
  C 332.26 155.26 332.69 157.16 333.00 158.87
  L 333.00 255.28
  Q 331.75 270.86 333.00 286.37
  L 333.00 340.26
  Q 331.98 352.65 332.00 358.75
  Q 332.39 501.50 332.32 644.25
  Q 332.31 660.18 324.27 672.06
  Q 321.34 673.47 319.16 672.99
  Q 318.52 672.84 318.89 672.30
  C 320.53 669.85 323.36 666.21 322.09 663.19
  Q 325.68 656.29 325.67 649.50
  Q 325.45 453.11 325.49 256.72
  Q 327.67 255.65 327.63 253.87
  Q 327.11 227.06 326.79 200.25
  Q 326.71 193.72 327.83 167.75
  Q 328.00 163.74 326.51 158.84
  Q 326.28 158.07 326.04 158.84
  L 325.91 159.30
  C 325.72 158.02 326.01 156.65 326.00 155.58
  Q 325.20 103.45 325.48 51.34
  C 325.57 34.16 323.93 22.74 309.95 13.12
  Q 307.71 11.58 305.11 11.19
  Q 304.75 11.28 303.90 10.85
  Q 303.66 9.29 305.51 8.88
  Q 310.64 7.77 316.40 9.68
  Z"
/>
<path fill="#000000" d="
  M 291.28 9.97
  L 303.90 10.85
  Q 304.75 11.28 305.11 11.19
  C 307.86 14.24 311.14 17.33 313.28 20.27
  Q 320.03 29.54 320.06 40.50
  Q 320.49 229.12 319.97 641.79
  Q 320.03 645.15 319.97 648.51
  C 319.86 654.45 317.22 660.84 315.41 666.54
  Q 311.49 672.73 304.26 678.83
  L 298.88 679.25
  Q 296.67 678.85 292.89 678.92
  C 212.75 680.30 121.58 679.67 35.78 678.90
  Q 30.68 678.56 25.59 676.46
  C 12.12 664.77 12.03 650.81 12.03 634.25
  Q 12.02 346.13 12.04 58.00
  Q 12.04 41.17 12.51 38.03
  Q 14.60 23.90 24.95 12.66
  L 30.80 10.59
  L 36.05 10.05
  L 291.28 9.97
  Z
  M 48.75 15.93
  C 26.61 15.82 15.31 26.27 15.31 48.50
  Q 15.30 339.88 15.31 631.25
  Q 15.31 643.55 24.26 649.27
  C 30.62 653.33 40.59 653.39 48.50 653.40
  Q 166.42 653.58 284.35 653.43
  Q 289.67 653.43 293.13 653.19
  Q 299.43 652.77 301.84 652.00
  Q 316.71 647.26 316.73 631.25
  Q 317.01 341.50 316.87 51.75
  Q 316.87 40.16 315.33 35.22
  C 310.58 20.01 298.45 16.01 283.75 15.99
  Q 255.50 15.95 227.24 15.77
  Q 220.31 15.73 219.22 21.98
  C 217.59 31.30 212.65 37.70 202.63 37.76
  Q 165.19 37.97 127.74 37.87
  C 118.30 37.85 114.18 28.88 112.34 20.79
  Q 111.26 16.04 107.00 16.05
  Q 77.88 16.08 48.75 15.93
  Z
  M 195.10 20.86
  L 196.62 27.16
  A 2.75 2.75 0.0 0 0 199.94 29.18
  L 201.40 28.83
  A 7.13 5.90 -13.6 0 0 206.94 21.42
  L 206.90 21.24
  A 7.13 5.90 -13.6 0 0 198.58 17.19
  L 197.12 17.54
  A 2.75 2.75 0.0 0 0 195.10 20.86
  Z"
/>
<path fill="#868785" d="
  M 305.11 11.19
  Q 307.71 11.58 309.95 13.12
  C 323.93 22.74 325.57 34.16 325.48 51.34
  Q 325.20 103.45 326.00 155.58
  C 326.01 156.65 325.72 158.02 325.91 159.30
  L 325.49 256.72
  Q 325.45 453.11 325.67 649.50
  Q 325.68 656.29 322.09 663.19
  Q 316.02 676.52 304.26 678.83
  Q 311.49 672.73 315.41 666.54
  Q 320.71 661.48 320.45 655.75
  Q 320.14 648.78 319.97 641.79
  Q 320.49 229.12 320.06 40.50
  Q 320.03 29.54 313.28 20.27
  C 311.14 17.33 307.86 14.24 305.11 11.19
  Z"
/>
<path fill="#868785" d="
  M 24.95 12.66
  Q 14.60 23.90 12.51 38.03
  Q 12.04 41.17 12.04 58.00
  Q 12.02 346.13 12.03 634.25
  C 12.03 650.81 12.12 664.77 25.59 676.46
  Q 25.28 678.80 21.76 676.18
  Q 6.04 664.47 6.30 643.92
  Q 6.18 342.76 6.30 41.50
  Q 6.31 20.85 24.95 12.66
  Z"
/>
<path fill="#1e1e1e" d="
  M 195.10 20.86
  A 2.75 2.75 0.0 0 1 197.12 17.54
  L 198.58 17.19
  A 7.13 5.90 -13.6 0 1 206.90 21.24
  L 206.94 21.42
  A 7.13 5.90 -13.6 0 1 201.40 28.83
  L 199.94 29.18
  A 2.75 2.75 0.0 0 1 196.62 27.16
  L 195.10 20.86
  Z"
/>
<path fill="#000000" d="
  M 325.49 256.72
  L 325.91 159.30
  L 326.04 158.84
  Q 326.28 158.07 326.51 158.84
  Q 328.00 163.74 327.83 167.75
  Q 326.71 193.72 326.79 200.25
  Q 327.11 227.06 327.63 253.87
  Q 327.67 255.65 325.49 256.72
  Z"
/>
<path fill="#2c2c2d" d="
  M 319.97 641.79
  Q 320.14 648.78 320.45 655.75
  Q 320.71 661.48 315.41 666.54
  C 317.22 660.84 319.86 654.45 319.97 648.51
  Q 320.03 645.15 319.97 641.79
  Z"
/>
<path fill="#1e1e1e" d="
  M 6.30 643.92
  Q 6.04 664.47 21.76 676.18
  Q 25.28 678.80 25.59 676.46
  Q 30.68 678.56 35.78 678.90
  L 33.61 678.93
  A 0.81 0.80 58.1 0 0 33.26 680.45
  Q 38.00 682.90 43.00 682.87
  Q 133.50 682.22 224.00 682.00
  C 246.05 681.95 267.94 683.83 290.00 683.33
  Q 295.65 683.20 298.88 679.25
  L 304.26 678.83
  Q 316.02 676.52 322.09 663.19
  C 323.36 666.21 320.53 669.85 318.89 672.30
  Q 318.52 672.84 319.16 672.99
  Q 321.34 673.47 324.27 672.06
  Q 312.96 688.26 295.01 689.24
  Q 275.41 690.31 220.93 689.59
  Q 165.61 688.87 84.09 689.62
  C 78.35 689.67 72.83 689.16 67.14 688.67
  C 60.43 688.09 52.28 689.89 47.01 690.00
  C 22.54 690.53 4.00 678.43 0.00 653.39
  L 0.00 649.65
  Q 2.05 650.27 2.95 649.10
  A 0.58 0.57 41.8 0 0 2.90 648.35
  L 1.66 647.07
  Q 1.22 646.62 1.61 646.12
  Q 3.90 643.18 6.30 643.92
  Z"
/>
<path fill="#2c2c2d" d="
  M 298.88 679.25
  Q 295.65 683.20 290.00 683.33
  C 267.94 683.83 246.05 681.95 224.00 682.00
  Q 133.50 682.22 43.00 682.87
  Q 38.00 682.90 33.26 680.45
  A 0.81 0.80 58.1 0 1 33.61 678.93
  L 35.78 678.90
  C 121.58 679.67 212.75 680.30 292.89 678.92
  Q 296.67 678.85 298.88 679.25
  Z"
/>
</svg>
